<svg width="31" height="45" viewBox="0 0 31 45" fill="none" xmlns="http://www.w3.org/2000/svg">
<path fill-rule="evenodd" clip-rule="evenodd" d="M15.5032 3.97961C13.9899 3.97961 12.4915 4.27767 11.0934 4.85677C9.69533 5.43587 8.42502 6.28467 7.35499 7.3547C6.28495 8.42473 5.43615 9.69505 4.85705 11.0931C4.27796 12.4912 3.9799 13.9896 3.9799 15.5029C3.9799 17.0161 4.27796 18.5146 4.85705 19.9126C5.43615 21.3107 6.28495 22.581 7.35499 23.6511C8.42502 24.7211 9.69533 25.5699 11.0934 26.149C12.4915 26.7281 13.9899 27.0261 15.5032 27.0261C18.5593 27.0261 21.4903 25.8121 23.6513 23.6511C25.8124 21.49 27.0264 18.559 27.0264 15.5029C27.0264 12.4467 25.8124 9.51573 23.6513 7.3547C21.4903 5.19367 18.5593 3.97961 15.5032 3.97961ZM31 15.5029C30.9995 19.2687 29.628 22.9056 27.1418 25.734C24.6555 28.5625 21.2246 30.3891 17.4899 30.8725V34.9732H21.8608C22.3878 34.9732 22.8931 35.1825 23.2657 35.5551C23.6383 35.9277 23.8476 36.4331 23.8476 36.96C23.8476 37.4869 23.6383 37.9923 23.2657 38.3649C22.8931 38.7375 22.3878 38.9468 21.8608 38.9468H17.4899V42.523C17.4899 43.0499 17.2806 43.5552 16.908 43.9278C16.5354 44.3004 16.0301 44.5097 15.5032 44.5097C14.9762 44.5097 14.4709 44.3004 14.0983 43.9278C13.7257 43.5552 13.5164 43.0499 13.5164 42.523V38.9468H9.1455C8.61858 38.9468 8.11323 38.7375 7.74064 38.3649C7.36805 37.9923 7.15873 37.4869 7.15873 36.96C7.15873 36.4331 7.36805 35.9277 7.74064 35.5551C8.11323 35.1825 8.61858 34.9732 9.1455 34.9732H13.5164V30.8725C10.5598 30.491 7.77599 29.265 5.49855 27.3415C3.2211 25.4179 1.54666 22.8784 0.675927 20.0273C-0.194807 17.1763 -0.224899 14.1346 0.589259 11.2668C1.40342 8.39907 3.02728 5.82694 5.26623 3.8587C7.50518 1.89046 10.2642 0.609628 13.2127 0.169709C16.1611 -0.270209 19.1738 0.149453 21.8898 1.3784C24.6058 2.60734 26.9098 4.59343 28.5256 7.09861C30.1414 9.6038 31.0005 12.5218 31 15.5029Z" fill="white"/>
</svg>
