<svg width="37" height="39" viewBox="0 0 37 39" fill="none" xmlns="http://www.w3.org/2000/svg">
<path fill-rule="evenodd" clip-rule="evenodd" d="M3.60963 4.98837C3.60963 7.74558 5.82955 9.97674 8.57287 9.97674C11.3162 9.97674 13.5361 7.74558 13.5361 4.98837C13.5361 2.23116 11.3162 0 8.57287 0C5.82955 0 3.60963 2.23116 3.60963 4.98837ZM6.31685 4.98837C6.31685 4.38701 6.55454 3.81028 6.97763 3.38505C7.40071 2.95982 7.97454 2.72093 8.57287 2.72093C9.1712 2.72093 9.74503 2.95982 10.1681 3.38505C10.5912 3.81028 10.8289 4.38701 10.8289 4.98837C10.8289 5.58974 10.5912 6.16647 10.1681 6.5917C9.74503 7.01692 9.1712 7.25581 8.57287 7.25581C7.97454 7.25581 7.40071 7.01692 6.97763 6.5917C6.55454 6.16647 6.31685 5.58974 6.31685 4.98837ZM24.4011 38.0749C25.3216 39 26.4947 39 28.4258 39C30.357 39 31.5301 39 32.4686 38.0567C33.3891 37.1316 33.3891 35.9526 33.3891 34.0116V29.0051C34.9412 28.9507 36.1324 28.6605 36.728 27.3726C37.3561 26.003 36.8254 24.5791 35.8617 21.9942L35.8436 21.9488L33.6057 15.9265C32.6672 13.3688 30.6819 11.7907 28.4258 11.7907C26.1698 11.7907 24.1845 13.387 23.246 15.9265L21.008 21.9488L20.9918 21.9942C20.028 24.5773 19.4974 26.003 20.1255 27.3907C20.7211 28.6605 21.9123 28.9507 23.4644 29.0051V34.0116C23.4644 35.9526 23.4626 37.1135 24.4011 38.0749ZM25.7926 16.8698C26.316 15.4367 27.3448 14.5116 28.4276 14.5116L28.4637 14.5479C29.5286 14.5479 30.5754 15.473 31.0988 16.906L33.3367 22.9284C33.9143 24.4521 34.4557 25.9033 34.3655 26.1754C34.1128 26.3205 32.9758 26.3205 32.0553 26.3205C31.3153 26.3205 30.7017 26.9372 30.7017 27.6809V34.0298C30.7017 34.9367 30.7017 36.0433 30.5754 36.1702C30.1783 36.4242 26.695 36.406 26.3341 36.1702C26.1897 36.007 26.1897 34.9005 26.1897 34.0116V27.6628C26.1897 26.9191 25.576 26.3023 24.8361 26.3023C23.9156 26.3023 22.7786 26.3023 22.5981 26.2479C22.4357 25.8851 22.9771 24.434 23.5546 22.8921L25.7926 16.8698ZM28.4258 9.97674C25.6825 9.97674 23.4626 7.74558 23.4626 4.98837C23.4626 2.23116 25.6825 0 28.4258 0C31.1692 0 33.3891 2.23116 33.3891 4.98837C33.3891 7.74558 31.1692 9.97674 28.4258 9.97674ZM28.4258 2.72093C27.8275 2.72093 27.2537 2.95982 26.8306 3.38505C26.4075 3.81028 26.1698 4.38701 26.1698 4.98837C26.1698 5.58974 26.4075 6.16647 26.8306 6.5917C27.2537 7.01692 27.8275 7.25581 28.4258 7.25581C29.0242 7.25581 29.598 7.01692 30.0211 6.5917C30.4442 6.16647 30.6819 5.58974 30.6819 4.98837C30.6819 4.38701 30.4442 3.81028 30.0211 3.38505C29.598 2.95982 29.0242 2.72093 28.4258 2.72093ZM4.54813 38.0749C5.46859 39 6.64172 39 8.57287 39C10.504 39 11.6772 39 12.6157 38.0567C13.5361 37.1316 13.5361 35.9526 13.5361 34.0116V29.0051C14.7092 28.9507 15.5214 28.7693 16.2253 28.08C17.1457 27.1549 17.1457 25.9758 17.1457 24.0349V20.407C17.1457 16.7247 17.1457 14.7112 15.7019 13.26C14.24 11.7907 12.2186 11.7907 8.57287 11.7907C4.92715 11.7907 2.90575 11.7907 1.4619 13.26C-1.07575e-07 14.7112 0 16.7247 0 20.407V24.0349C0 25.9758 0 27.1367 0.938504 28.0981C1.62433 28.7874 2.4365 28.9688 3.60963 29.0051V34.0116C3.60963 35.9526 3.60963 37.1135 4.54813 38.0749ZM3.375 15.1828C4.00669 14.5298 5.41444 14.5116 8.57287 14.5116V14.5298C11.7313 14.5298 13.1571 14.5479 13.7888 15.2009C14.4205 15.8358 14.4385 17.2507 14.4385 20.4251V24.053C14.4385 24.96 14.4385 26.0665 14.3122 26.1935C14.1137 26.3205 13.0849 26.3205 12.1825 26.3205C11.4425 26.3205 10.8289 26.9372 10.8289 27.6809V34.0298C10.8289 34.9367 10.8289 36.0433 10.7026 36.1702C10.3055 36.4242 6.8222 36.406 6.46124 36.1702C6.31685 36.007 6.31685 34.9005 6.31685 34.0116V27.6628C6.31685 26.9191 5.70322 26.3023 4.96324 26.3023C4.06083 26.3023 3.03209 26.3023 2.85161 26.1935C2.70722 26.0302 2.70722 24.9237 2.70722 24.0349V20.407C2.70722 17.2507 2.74332 15.8177 3.375 15.1828Z" fill="#808080"/>
</svg>
