<svg width="25" height="23" viewBox="0 0 25 23" fill="none" xmlns="http://www.w3.org/2000/svg">
<path d="M24.1993 11.3301H24.1888M19.5301 11.3301H19.5196M10.7592 6.06538H10.7475M0.80076 11.3301C0.80076 17.1446 5.4138 21.8594 11.1032 21.8594C13.9894 21.8594 16.5983 20.6462 18.469 18.6924C19.2178 17.9086 19.5922 17.5178 19.5079 16.8779C19.4225 16.2379 18.8797 15.9173 17.794 15.2762L16.9072 14.7533C14.3298 13.2324 13.0406 12.4719 13.0406 11.3301C13.0406 10.1882 14.3298 9.42658 16.9072 7.90685L17.794 7.38272C18.8797 6.74277 19.4225 6.42338 19.5079 5.78226C19.5933 5.1423 19.2189 4.75038 18.469 3.9677C16.5983 2.01392 13.9894 0.800699 11.1032 0.800699C5.4138 0.800699 0.80076 5.51551 0.80076 11.3301Z" stroke="#808080" stroke-width="1.6" stroke-linecap="round" stroke-linejoin="round"/>
</svg>
