<svg width="23" height="22" viewBox="0 0 23 22" fill="none" xmlns="http://www.w3.org/2000/svg">
<path d="M9.04448 0.124453C7.73233 0.433477 2.01509 3.32506 1.195 4.09762C0.796664 4.45079 0.374901 5.13506 0.234313 5.57652C0.117157 6.01798 1.60386e-08 8.71091 1.25754e-08 11.5804C6.58137e-09 16.5469 0.0234313 16.8338 0.53892 17.7609C0.820096 18.2907 1.31215 18.9087 1.64019 19.1294C2.62431 19.8137 11.1299 21.9769 12.8872 21.9989C14.7852 22.021 15.5818 21.712 18.4639 19.8358C23.033 16.878 23.0564 16.8559 22.9861 11.3597C22.9158 5.22335 22.5409 3.56786 20.9242 2.68494C19.8932 2.13311 12.7935 0.168598 11.247 0.0361595C10.5441 -0.0300598 9.53654 -0.00798606 9.04448 0.124453ZM12.3717 3.32506C12.9575 3.7003 13.0512 4.34042 12.5357 4.73774C12.0203 5.13506 10.1223 5.06884 9.5834 4.6053C9.02105 4.11969 9.02105 3.96518 9.60683 3.41335C10.1692 2.8836 11.6219 2.81738 12.3717 3.32506ZM20.6195 7.80591C21.2053 8.84334 20.5961 10.6975 19.6823 10.6975C19.1434 10.6975 18.5107 9.79249 18.5107 9.01993C18.5107 7.8942 18.8622 7.38652 19.6823 7.38652C20.1275 7.38652 20.4555 7.54103 20.6195 7.80591ZM5.0143 8.75505C5.48292 9.3731 5.50636 10.4768 5.06116 11.0286C4.6394 11.5804 3.32725 11.5804 2.90548 11.0286C2.46029 10.4547 2.50715 9.15237 2.97578 8.66676C3.5147 8.11493 4.5691 8.15908 5.0143 8.75505ZM10.8253 9.96908C11.411 10.4768 11.3876 11.8894 10.7784 12.4633C9.79428 13.3904 8.43527 12.662 8.43527 11.2052C8.43527 9.79249 9.79428 9.08615 10.8253 9.96908ZM4.28793 14.2513C4.99087 14.6044 5.15489 14.8693 5.15489 15.7522C5.15489 16.7014 4.59254 17.3194 3.72558 17.3194C2.83519 17.3194 2.34313 16.7897 2.34313 15.7964C2.34313 14.781 2.74146 14.2513 3.70215 14.0305C3.74901 14.0085 4.00675 14.1188 4.28793 14.2513ZM17.5266 15.1783C17.9484 15.995 17.7141 17.2311 17.0814 17.5402C15.863 18.1582 14.9023 16.7014 15.5584 15.2225C15.863 14.5382 16.027 14.4278 16.5659 14.4941C17.0111 14.5382 17.3157 14.7589 17.5266 15.1783ZM10.8956 16.5027C11.6688 17.5622 10.9893 19.1294 9.77085 19.1294C8.97419 19.1294 8.50556 18.7763 8.31811 18.0037C7.91978 16.282 9.88801 15.1342 10.8956 16.5027Z" fill="white"/>
</svg>
