<svg width="25" height="39" viewBox="0 0 25 39" fill="none" xmlns="http://www.w3.org/2000/svg">
<path d="M19.0445 0.062084C18.6383 0.220878 18.7494 0.108505 13.2064 5.89914C10.558 8.66373 8.98978 10.2881 5.58639 13.809C4.17551 15.2605 2.41464 17.08 1.67132 17.8508C0.928715 18.6151 0.256197 19.3411 0.177624 19.457C-0.0119425 19.7443 -0.0584548 20.2307 0.080357 20.4687C0.358688 20.9381 0.256584 20.9073 6.73747 22.5258C7.81556 22.7942 8.7308 23.0448 8.77216 23.0887C8.807 23.1318 8.83619 23.2267 8.82841 23.298C8.81427 23.4275 8.06013 25.6256 6.11576 31.239C4.37677 36.2392 4.09171 37.0993 4.06696 37.326C3.99485 37.9865 4.58726 38.4771 5.31779 38.3668C5.52609 38.3306 5.68142 38.2362 5.95284 37.984C6.52456 37.4567 11.175 32.6564 20.1684 23.3368C23.9968 19.3642 24.0712 19.2872 24.2204 19.0675C24.4265 18.7493 24.4245 18.2248 24.2052 17.9387C24.113 17.8173 23.9889 17.6858 23.928 17.6398C23.8664 17.6003 22.6102 17.2731 21.139 16.9225C16.1743 15.7251 15.892 15.655 15.8339 15.5831C15.7758 15.5112 15.8598 15.2255 16.9131 12.0378C17.2972 10.8739 17.6526 9.79217 17.7029 9.63382C17.7531 9.47548 18.2665 7.91292 18.8409 6.15387C19.4217 4.39554 20.0155 2.57963 20.1648 2.11755C20.5424 0.953013 20.5017 0.601258 19.9457 0.199793C19.6645 -0.00129372 19.3344 -0.0569911 19.0445 0.062084Z" fill="white"/>
</svg>
