<svg width="493" height="499" viewBox="0 0 493 499" fill="none" xmlns="http://www.w3.org/2000/svg">
<path d="M293.643 3.06071C263.538 13.3137 227.635 40.1197 207.03 67.7905C201.231 75.5729 188.4 96.5729 187.289 100.155C187.043 100.773 182.108 99.0435 176.186 96.2023C155.827 86.6905 133.249 82.7375 112.152 85.0847C69.2157 89.7787 32.8189 116.955 13.5717 158.461C4.1949 178.596 0 198.979 0 224.673C0 277.544 19.494 321.398 65.6378 372.91C86.4888 396.01 136.827 437.762 173.965 462.716C185.192 470.127 227.264 494.958 232.817 497.305C239.48 500.021 253.791 499.404 260.947 495.946C284.018 485.198 339.046 450.363 364.339 430.598C407.275 396.998 433.308 370.068 457.121 334.491C473.9 309.539 484.264 285.698 490.063 258.768C493.764 241.721 494.011 208.368 490.556 191.938C478.835 136.103 440.834 97.3141 386.794 86.1964C377.171 84.22 355.579 84.22 346.079 86.1964C342.008 87.0611 333.741 89.4083 327.696 91.5082C321.774 93.4847 316.345 94.72 315.852 94.1023C313.507 91.7553 310.546 67.6669 310.546 51.7315C310.669 38.6374 311.163 32.955 313.26 25.2961C317.332 10.1019 316.591 4.79015 310.053 1.33131C306.227 -0.768702 304.13 -0.521669 293.643 3.06071ZM386.917 131.779C400.49 136.103 409.619 141.785 420.847 153.027C429.606 161.797 432.445 165.626 437.256 175.386C445.523 192.062 448.114 203.303 448.237 222.203C448.36 239.621 447.003 248.514 441.574 265.438C434.789 286.438 423.191 307.438 406.782 327.821C394.937 342.521 364.709 371.551 342.501 389.34C322.76 405.151 265.882 444.433 264.649 443.075C264.279 442.704 267.61 436.899 272.174 430.228C291.792 401.445 301.045 372.786 301.045 341.41C301.045 310.28 293.52 288.662 270.694 253.95C248.362 220.103 243.674 207.256 244.538 182.673C245.154 167.973 248.486 154.879 253.668 147.097L256.012 143.761L256.875 152.408C259.59 176.126 267.362 190.826 291.792 217.879C310.546 238.633 315.975 246.909 321.403 263.091C324.241 271.121 325.352 278.656 327.696 303.238C328.435 310.404 332.136 317.321 335.221 317.321C344.968 317.321 358.046 297.186 364.832 271.986C367.794 261.115 368.164 257.657 368.164 238.262C368.164 218.868 367.917 215.285 364.956 203.673C360.144 184.527 354.345 171.679 339.046 145.985C335.714 140.303 333.247 135.238 333.618 134.62C334.357 133.385 343.488 130.172 349.164 129.061C356.073 127.702 379.515 129.432 386.917 131.779ZM148.179 131.902C153.237 133.261 160.64 135.732 164.711 137.338C172.114 140.426 172.114 140.549 171.744 145.244C170.51 161.303 171.003 202.562 172.608 209.233C175.939 224.427 181.738 240.486 188.277 252.715C191.978 259.633 194.94 265.933 194.94 266.674C194.94 269.021 189.264 267.909 181.614 264.203C172.237 259.385 161.626 248.391 153.731 234.804C150.523 229.244 146.204 223.314 144.108 221.586C137.691 216.15 130.535 218.126 124.49 227.02C110.054 248.762 108.574 287.921 120.912 324.856C127.821 345.486 140.653 369.327 154.347 386.622C169.4 405.892 121.529 367.721 97.7164 341.41C61.9364 302.25 44.4166 263.215 44.4166 222.451C44.4166 180.82 71.3132 142.402 107.834 131.902C118.321 128.815 136.457 128.938 148.179 131.902Z" fill="url(#paint0_linear_641_960)"/>
<defs>
<linearGradient id="paint0_linear_641_960" x1="156.52" y1="9.81962e-08" x2="423.396" y2="462.289" gradientUnits="userSpaceOnUse">
<stop stop-color="#CF0728"/>
<stop offset="1" stop-color="#BC001F"/>
</linearGradient>
</defs>
</svg>
