<svg width="40" height="40" viewBox="0 0 40 40" fill="none" xmlns="http://www.w3.org/2000/svg">
<path d="M23.825 0.245347C21.3824 1.06723 18.4694 3.21601 16.7976 5.43411C16.3271 6.05795 15.286 7.74132 15.1959 8.02849C15.1759 8.078 14.7755 7.93936 14.295 7.71161C12.6432 6.94914 10.8113 6.63227 9.09954 6.82042C5.61588 7.19669 2.66279 9.37518 1.10115 12.7023C0.340357 14.3163 0 15.9502 0 18.0099C0 22.248 1.58166 25.7634 5.32558 29.8925C7.01735 31.7443 11.1016 35.0912 14.1148 37.0915C15.0257 37.6855 18.4393 39.676 18.8898 39.8641C19.4304 40.0819 20.5916 40.0324 21.1722 39.7552C23.0441 38.8936 27.5088 36.1012 29.561 34.5168C33.0446 31.8235 35.1568 29.6648 37.0889 26.8129C38.4503 24.8127 39.2912 22.9016 39.7617 20.7429C40.062 19.3764 40.082 16.7028 39.8017 15.3858C38.8507 10.91 35.7675 7.80073 31.3829 6.90953C30.6021 6.7511 28.8502 6.7511 28.0794 6.90953C27.7491 6.97885 27.0784 7.16699 26.5879 7.33533C26.1074 7.49376 25.6669 7.59278 25.6269 7.54327C25.4367 7.35513 25.1964 5.4242 25.1964 4.14682C25.2064 3.09719 25.2465 2.64168 25.4166 2.02774C25.747 0.809775 25.6869 0.38398 25.1564 0.106718C24.846 -0.0616194 24.6759 -0.0418172 23.825 0.245347ZM31.3929 10.5635C32.4941 10.91 33.2348 11.3655 34.1458 12.2667C34.8565 12.9697 35.0868 13.2766 35.4772 14.059C36.1479 15.3958 36.3581 16.2968 36.3681 17.8119C36.3781 19.2081 36.268 19.921 35.8275 21.2776C35.277 22.961 34.336 24.6444 33.0046 26.2782C32.0436 27.4566 29.591 29.7836 27.7891 31.2096C26.1874 32.477 21.5726 35.6259 21.4725 35.517C21.4425 35.4873 21.7128 35.0219 22.0831 34.4872C23.6748 32.18 24.4256 29.8827 24.4256 27.3675C24.4256 24.8721 23.815 23.1393 21.963 20.3567C20.1511 17.6436 19.7707 16.6137 19.8408 14.6432C19.8908 13.4648 20.1611 12.4151 20.5816 11.7913L20.7718 11.524L20.8418 12.2171C21.0621 14.1183 21.6927 15.2967 23.6748 17.4653C25.1964 19.1289 25.6369 19.7923 26.0773 21.0895C26.3076 21.7331 26.3977 22.3372 26.5879 24.3077C26.6479 24.8821 26.9482 25.4366 27.1985 25.4366C27.9893 25.4366 29.0504 23.8225 29.601 21.8025C29.8413 20.9311 29.8713 20.6538 29.8713 19.0992C29.8713 17.5445 29.8513 17.2573 29.611 16.3265C29.2206 14.7917 28.7501 13.7619 27.5088 11.7022C27.2385 11.2467 27.0383 10.8407 27.0684 10.7912C27.1284 10.6922 27.8692 10.4347 28.3297 10.3456C28.8903 10.2366 30.7923 10.3753 31.3929 10.5635ZM12.0226 10.5733C12.433 10.6823 13.0337 10.8803 13.364 11.0091C13.9646 11.2566 13.9646 11.2665 13.9346 11.6428C13.8345 12.9301 13.8745 16.2374 14.0047 16.7722C14.275 17.9901 14.7455 19.2774 15.276 20.2577C15.5763 20.8123 15.8166 21.3172 15.8166 21.3767C15.8166 21.5648 15.3561 21.4757 14.7354 21.1786C13.9746 20.7924 13.1137 19.9111 12.4731 18.8219C12.2128 18.3763 11.8624 17.9009 11.6923 17.7624C11.1717 17.3266 10.5911 17.485 10.1006 18.198C8.92936 19.9408 8.80923 23.0798 9.81028 26.0406C10.3709 27.6942 11.412 29.6053 12.5231 30.9917C13.7444 32.5364 9.86033 29.4767 7.92831 27.3675C5.02527 24.2285 3.60378 21.0994 3.60378 17.8317C3.60378 14.4946 5.78606 11.415 8.74917 10.5733C9.60006 10.3258 11.0716 10.3357 12.0226 10.5733Z" fill="#373737"/>
</svg>
