<svg width="57" height="11" viewBox="0 0 57 11" fill="none" xmlns="http://www.w3.org/2000/svg">
<circle cx="4" cy="7" r="4" fill="#E7E7E7"/>
<circle cx="20" cy="7" r="4" fill="#333333"/>
<circle cx="36" cy="7" r="4" fill="#333333"/>
<path d="M50.3287 11C49.8895 11 49.5573 10.8863 49.3322 10.659C49.1107 10.4316 49 10.0851 49 9.61959V5.65158C49 5.18963 49.1107 4.84498 49.3322 4.61762C49.5573 4.39026 49.8895 4.27658 50.3287 4.27658H55.6713C56.1068 4.27658 56.4371 4.39026 56.6623 4.61762C56.8874 4.84498 57 5.18963 57 5.65158V9.61959C57 10.0851 56.8874 10.4316 56.6623 10.659C56.4371 10.8863 56.1068 11 55.6713 11H50.3287ZM50.0685 4.78543V3.03691C50.0685 2.3873 50.2014 1.83694 50.4671 1.38583C50.7366 0.934711 51.0927 0.591864 51.5356 0.357283C51.9822 0.119094 52.4694 0 52.9972 0C53.5287 0 54.0159 0.119094 54.4588 0.357283C54.9054 0.591864 55.2616 0.934711 55.5273 1.38583C55.7968 1.83694 55.9315 2.3873 55.9315 3.03691V4.78543H54.6913V2.96112C54.6913 2.58219 54.6138 2.25919 54.4588 1.99213C54.3075 1.72507 54.1027 1.52116 53.8443 1.38041C53.5896 1.23967 53.3073 1.16929 52.9972 1.16929C52.6872 1.16929 52.4048 1.23967 52.1502 1.38041C51.8955 1.52116 51.6925 1.72507 51.5412 1.99213C51.3899 2.25919 51.3142 2.58219 51.3142 2.96112V4.78543H50.0685Z" fill="#333333"/>
</svg>
