<svg width="31" height="44" viewBox="0 0 31 44" fill="none" xmlns="http://www.w3.org/2000/svg">
<path fill-rule="evenodd" clip-rule="evenodd" d="M15.3277 3.93458C13.8316 3.93458 12.3501 4.22926 10.9679 4.80181C9.58561 5.37435 8.32967 6.21354 7.27175 7.27147C6.21382 8.32939 5.37463 9.58533 4.80209 10.9676C4.22954 12.3498 3.93486 13.8313 3.93486 15.3274C3.93486 16.8236 4.22954 18.305 4.80209 19.6873C5.37463 21.0695 6.21382 22.3255 7.27175 23.3834C8.32967 24.4413 9.58561 25.2805 10.9679 25.8531C12.3501 26.4256 13.8316 26.7203 15.3277 26.7203C18.3493 26.7203 21.2471 25.52 23.3837 23.3834C25.5203 21.2468 26.7206 18.349 26.7206 15.3274C26.7206 12.3059 25.5203 9.40804 23.3837 7.27147C21.2471 5.13489 18.3493 3.93458 15.3277 3.93458ZM30.6491 15.3274C30.6486 19.0506 29.2927 22.6463 26.8346 25.4428C24.3765 28.2392 20.9844 30.0451 17.292 30.5231V34.5774H21.6134C22.1344 34.5774 22.634 34.7844 23.0024 35.1528C23.3708 35.5211 23.5777 36.0208 23.5777 36.5417C23.5777 37.0627 23.3708 37.5623 23.0024 37.9307C22.634 38.2991 22.1344 38.506 21.6134 38.506H17.292V42.0417C17.292 42.5627 17.085 43.0623 16.7167 43.4307C16.3483 43.7991 15.8487 44.006 15.3277 44.006C14.8068 44.006 14.3071 43.7991 13.9388 43.4307C13.5704 43.0623 13.3634 42.5627 13.3634 42.0417V38.506H9.042C8.52104 38.506 8.02142 38.2991 7.65304 37.9307C7.28467 37.5623 7.07771 37.0627 7.07771 36.5417C7.07771 36.0208 7.28467 35.5211 7.65304 35.1528C8.02142 34.7844 8.52104 34.5774 9.042 34.5774H13.3634V30.5231C10.4403 30.146 7.68799 28.9338 5.43632 27.0321C3.18464 25.1303 1.52916 22.6195 0.668278 19.8007C-0.192603 16.9819 -0.222354 13.9746 0.582591 11.1393C1.38753 8.30402 2.99302 5.76099 5.20663 3.81503C7.42024 1.86907 10.148 0.602729 13.0631 0.167789C15.9782 -0.267151 18.9569 0.147761 21.6421 1.3628C24.3273 2.57783 26.6052 4.54144 28.2028 7.01828C29.8003 9.49511 30.6497 12.3801 30.6491 15.3274Z" fill="white"/>
</svg>
