<svg width="25" height="23" viewBox="0 0 25 23" fill="none" xmlns="http://www.w3.org/2000/svg">
<path d="M24.1778 11.32H24.1673M19.5128 11.32H19.5023M10.7496 6.05999H10.7379M0.800049 11.32C0.800049 17.1294 5.40899 21.84 11.0933 21.84C13.9769 21.84 16.5836 20.6279 18.4526 18.6758C19.2007 17.8927 19.5747 17.5022 19.4906 16.8629C19.4053 16.2235 18.8629 15.9032 17.7782 15.2626L16.8921 14.7402C14.3171 13.2206 13.029 12.4608 13.029 11.32C13.029 10.1792 14.3171 9.41821 16.8921 7.89982L17.7782 7.37616C18.8629 6.73677 19.4053 6.41767 19.4906 5.77712C19.5759 5.13773 19.2019 4.74616 18.4526 3.96417C16.5836 2.01213 13.9769 0.799988 11.0933 0.799988C5.40899 0.799988 0.800049 5.51061 0.800049 11.32Z" stroke="#808080" stroke-width="1.6" stroke-linecap="round" stroke-linejoin="round"/>
</svg>
