<svg width="22" height="26" viewBox="0 0 22 26" fill="none" xmlns="http://www.w3.org/2000/svg">
<path d="M6.51294 0.569153C7.31836 0.0478372 8.21616 -0.0587713 9.24634 0.0261841C10.2531 0.109287 11.5021 0.387371 13.0608 0.731262L15.2971 1.22345L16.4084 1.47052C17.4616 1.70889 18.3421 1.92808 19.054 2.18927C20.0255 2.54576 20.795 3.01928 21.3108 3.82892C21.826 4.63805 21.9322 5.5388 21.8489 6.57501C21.7673 7.58858 21.4935 8.84593 21.1536 10.4178L18.9377 21.4647C18.9321 21.493 18.9247 21.5207 18.9163 21.5477C18.9159 21.5515 18.9166 21.5556 18.9163 21.5594C18.8199 22.6147 18.5491 23.4978 17.8733 24.2166L17.8743 24.2176C17.2021 24.9335 16.3287 25.271 15.2649 25.4608C14.2212 25.6468 12.8789 25.7088 11.1936 25.7879L8.77856 25.9012C7.0934 25.9803 5.75108 26.0443 4.69458 25.9568C3.61746 25.8676 2.7161 25.6127 1.97974 24.9627V24.9637C1.23926 24.3113 0.888418 23.4558 0.693604 22.4139C0.503609 21.3973 0.443945 20.091 0.367432 18.4608L0.0930176 12.6111C0.0164895 10.9806 -0.0468855 9.67434 0.0471191 8.64435C0.143519 7.58859 0.41273 6.70411 1.08911 5.98517C1.76123 5.26952 2.63487 4.93167 3.69849 4.742C3.83491 4.71769 3.97656 4.69498 4.12329 4.67462C4.34669 3.83145 4.66482 3.01382 5.04321 2.32013C5.43039 1.61044 5.92381 0.950609 6.51294 0.569153ZM14.1379 5.84064C13.2095 5.76371 11.9892 5.82004 10.26 5.90118L7.84497 6.01447C6.11569 6.09561 4.89599 6.15365 3.97876 6.3172C3.08207 6.47712 2.59477 6.7191 2.25513 7.08087V7.08185C1.91843 7.43971 1.71916 7.92199 1.63989 8.78986C1.55836 9.68353 1.61197 10.8591 1.69067 12.5359L1.96509 18.3856C2.0438 20.0627 2.10094 21.2387 2.26587 22.1209C2.40604 22.8703 2.60894 23.318 2.90454 23.6356L3.03833 23.7635C3.41032 24.0919 3.91788 24.2869 4.82544 24.3621C5.75395 24.4391 6.97409 24.3837 8.70337 24.3026L11.1184 24.1893C12.8476 24.1081 14.0674 24.0491 14.9846 23.8856C15.8812 23.7256 16.3676 23.4837 16.7073 23.1219H16.7083C17.0449 22.764 17.2433 22.2819 17.3225 21.4139C17.4041 20.5201 17.3514 19.3442 17.2727 17.6668L16.9983 11.8182C16.9196 10.1409 16.8615 8.96504 16.6965 8.08282C16.5364 7.22648 16.2946 6.76498 15.926 6.44025L15.9241 6.43927C15.5521 6.11124 15.045 5.91586 14.1379 5.84064ZM9.65649 13.3367C9.99527 13.0868 10.5705 12.9139 11.2542 13.2459C12.1514 13.6823 12.423 15.2468 10.468 16.6688L10.4661 16.6697C10.0942 16.9399 9.90837 17.0749 9.57544 17.0906C9.32541 17.1024 9.15143 17.0392 8.91333 16.908L8.64771 16.7537C6.56741 15.5211 6.69064 13.9377 7.54321 13.4197C8.19297 13.025 8.78215 13.1439 9.14282 13.3611C9.2903 13.4498 9.36452 13.494 9.40649 13.492C9.44852 13.4898 9.51827 13.4386 9.65649 13.3367ZM9.11548 1.62091C8.26584 1.5508 7.77401 1.65894 7.38306 1.91193C7.12099 2.08147 6.78348 2.46994 6.44751 3.08575C6.21861 3.50535 6.00993 3.99483 5.83813 4.5174C6.42461 4.48038 7.06736 4.44879 7.76978 4.41583L10.1848 4.30255C11.8699 4.22348 13.2123 4.15845 14.2688 4.24591C15.3453 4.33511 16.2465 4.58981 16.9827 5.23907C17.7234 5.8915 18.0749 6.74683 18.2698 7.78888C18.4599 8.8056 18.5194 10.1123 18.5959 11.743L18.7209 14.4109L19.5872 10.0916L19.5901 10.0799C19.9396 8.46399 20.1822 7.32858 20.2532 6.44611C20.3222 5.58682 20.2155 5.08621 19.9622 4.68829C19.7092 4.29116 19.3044 3.98524 18.5032 3.69122C17.6792 3.3889 16.5555 3.14061 14.9524 2.78693L12.7161 2.29279C11.1128 1.93908 9.98896 1.69304 9.11548 1.62091Z" fill="#E7E7E7"/>
</svg>
