<svg width="63" height="104" viewBox="0 0 63 104" fill="none" xmlns="http://www.w3.org/2000/svg">
<path d="M43.8796 0.264923C42.8677 0.793755 43.125 0.469635 30.3473 17.1193C24.2414 25.0688 20.6225 29.743 12.7673 39.8761C9.50852 44.0555 5.44367 49.2927 3.72855 51.5104C2.01342 53.711 0.469811 55.7922 0.298298 56.1163C-0.113332 56.9181 -0.0961805 58.1975 0.332601 58.7775C1.19016 59.9205 0.915743 59.8693 18.2385 62.2405C21.1199 62.6329 23.5725 63.0252 23.6926 63.1276C23.7955 63.2299 23.8984 63.4688 23.8984 63.6564C23.8984 63.9976 22.5606 69.9341 19.0961 85.0997C15.9917 98.6104 15.4943 100.93 15.4943 101.528C15.4943 103.268 17.1751 104.376 19.0446 103.882C19.5763 103.728 19.9536 103.438 20.5882 102.705C21.926 101.169 32.6627 87.3515 53.4157 60.5346C62.2486 49.105 62.4201 48.8833 62.746 48.2691C63.1919 47.3821 63.0376 46.0173 62.3858 45.335C62.1114 45.045 61.7512 44.7379 61.5797 44.6356C61.4082 44.5503 58.0466 44.0555 54.1189 43.5608C40.861 41.8549 40.1064 41.7526 39.9348 41.582C39.7633 41.4114 39.9005 40.6437 41.7357 32.046C42.4046 28.9071 43.0221 25.99 43.1078 25.5635C43.1936 25.137 44.0854 20.9235 45.0802 16.181C46.0921 11.4386 47.1212 6.54266 47.3785 5.29735C48.0302 2.15848 47.8244 1.25435 46.2637 0.367279C45.4747 -0.0762558 44.6 -0.127434 43.8796 0.264923Z" fill="#E6AB1F"/>
</svg>
