<svg width="42" height="42" viewBox="0 0 42 42" fill="none" xmlns="http://www.w3.org/2000/svg">
<path d="M26.8462 2H40M40 2V15.1538M40 2L23.1923 18.8077M14.4231 40C16.0545 40 17.6699 39.6787 19.1772 39.0543C20.6844 38.43 22.0539 37.515 23.2075 36.3614C24.3611 35.2078 25.2762 33.8383 25.9005 32.331C26.5248 30.8238 26.8462 29.2083 26.8462 27.5769C26.8462 25.9455 26.5248 24.3301 25.9005 22.8228C25.2762 21.3156 24.3611 19.9461 23.2075 18.7925C22.0539 17.6389 20.6844 16.7238 19.1772 16.0995C17.6699 15.4752 16.0545 15.1538 14.4231 15.1538C11.1283 15.1538 7.96841 16.4627 5.63864 18.7925C3.30886 21.1223 2 24.2821 2 27.5769C2 30.8717 3.30886 34.0316 5.63864 36.3614C7.96841 38.6911 11.1283 40 14.4231 40Z" stroke="#808080" stroke-width="4" stroke-linecap="round" stroke-linejoin="round"/>
</svg>
