<svg width="36" height="36" viewBox="0 0 36 36" fill="none" xmlns="http://www.w3.org/2000/svg">
<rect width="36" height="36" rx="18" fill="#BC001F"/>
<path d="M19.5445 9.08208C18.4655 9.47082 17.188 10.4602 16.4625 11.4712C16.2583 11.7555 15.8089 12.521 15.7711 12.6509C15.7626 12.6733 15.5836 12.6141 15.3683 12.5153C14.6282 12.1851 13.8117 12.0567 13.0525 12.1546C11.5074 12.351 10.2122 13.354 9.54441 14.8631C9.219 15.5952 9.08059 16.333 9.09676 17.2597C9.13005 19.1666 9.86051 20.736 11.5567 22.5648C12.323 23.3848 14.1642 24.859 15.5189 25.7356C15.9284 25.9959 17.4609 26.8649 17.6626 26.9461C17.9045 27.0399 18.4202 27.0086 18.676 26.8794C19.501 26.4772 21.4631 25.1862 22.3626 24.4574C23.8895 23.2186 24.8112 22.2309 25.6473 20.9328C26.2366 20.0223 26.5953 19.1559 26.7874 18.181C26.9101 17.5638 26.898 16.3607 26.7631 15.7703C26.3054 13.7639 24.9108 12.3889 22.9554 12.0219C22.6072 11.9567 21.8287 11.9702 21.4874 12.0475C21.3412 12.0813 21.0446 12.1711 20.828 12.2507C20.6157 12.3257 20.4207 12.3736 20.4026 12.3517C20.3166 12.2685 20.1946 11.4016 20.1846 10.8268C20.1808 10.3545 20.195 10.1492 20.2658 9.87169C20.4031 9.32113 20.373 9.13002 20.1351 9.00938C19.9958 8.93605 19.9204 8.94628 19.5445 9.08208ZM22.9886 13.6658C23.4806 13.8132 23.8134 14.0124 24.2253 14.4108C24.5466 14.7216 24.6514 14.8579 24.831 15.2069C25.1395 15.8031 25.24 16.2069 25.2564 16.8885C25.2718 17.5167 25.2284 17.8383 25.0433 18.4521C24.8119 19.2137 24.407 19.9784 23.8282 20.7239C23.4104 21.2615 22.3388 22.3276 21.5493 22.9831C20.8475 23.5658 18.8215 25.0184 18.7761 24.9702C18.7626 24.957 18.879 24.7455 19.0394 24.5021C19.7286 23.4516 20.0442 22.4122 20.0244 21.2805C20.0048 20.1578 19.7199 19.3829 18.875 18.1453C18.0486 16.9386 17.8714 16.4782 17.8871 15.591C17.9001 15.0604 18.012 14.5861 18.1939 14.3021L18.2763 14.1804L18.3129 14.4917C18.4257 15.3454 18.7152 15.8707 19.613 16.831C20.3022 17.5677 20.5032 17.8628 20.7091 18.443C20.8165 18.7309 20.8613 19.0019 20.9613 19.887C20.9924 20.145 21.1302 20.3922 21.2415 20.3902C21.5929 20.3841 22.0517 19.6497 22.2805 18.7365C22.3805 18.3426 22.3916 18.2176 22.3794 17.5181C22.3672 16.8186 22.3561 16.6895 22.242 16.2726C22.0564 15.5851 21.8393 15.1254 21.2715 14.2083C21.1478 14.0055 21.0557 13.8243 21.0686 13.8018C21.0945 13.7568 21.4217 13.6352 21.6256 13.5916C21.8739 13.5382 22.7202 13.5858 22.9886 13.6658ZM14.3809 13.8205C14.5642 13.8663 14.8326 13.9508 14.9804 14.0062C15.2493 14.1129 15.2493 14.1173 15.239 14.2869C15.2046 14.8668 15.2484 16.3546 15.3104 16.5942C15.4401 17.1401 15.6593 17.7156 15.9027 18.1526C16.0405 18.3998 16.1513 18.6251 16.1517 18.6519C16.1532 18.7365 15.9479 18.7 15.6697 18.5711C15.3286 18.4033 14.9391 18.0134 14.6459 17.5283C14.5267 17.3298 14.3673 17.1187 14.2906 17.0577C14.0558 16.8656 13.7991 16.9414 13.5867 17.266C13.0799 18.0592 13.0512 19.4725 13.5193 20.7969C13.7814 21.5366 14.2591 22.3883 14.7637 23.0035C15.3185 23.689 13.5685 22.3425 12.6934 21.4085C11.3787 20.0187 10.7225 18.6218 10.6968 17.1516C10.6706 15.6501 11.6162 14.2476 12.9263 13.8459C13.3025 13.7279 13.9565 13.721 14.3809 13.8205Z" fill="white"/>
</svg>
