<svg width="8" height="11" viewBox="0 0 8 11" fill="none" xmlns="http://www.w3.org/2000/svg">
<path d="M1.32872 11C0.889504 11 0.557324 10.8863 0.33218 10.659C0.110727 10.4316 0 10.0851 0 9.61959V5.65158C0 5.18963 0.110727 4.84498 0.33218 4.61762C0.557324 4.39026 0.889504 4.27658 1.32872 4.27658H6.67128C7.10681 4.27658 7.43714 4.39026 7.66228 4.61762C7.88743 4.84498 8 5.18963 8 5.65158V9.61959C8 10.0851 7.88743 10.4316 7.66228 10.659C7.43714 10.8863 7.10681 11 6.67128 11H1.32872ZM1.06851 4.78543V3.03691C1.06851 2.3873 1.20138 1.83694 1.46713 1.38583C1.73656 0.934711 2.09273 0.591864 2.53564 0.357283C2.98224 0.119094 3.46943 0 3.99723 0C4.52872 0 5.01592 0.119094 5.45882 0.357283C5.90542 0.591864 6.26159 0.934711 6.52734 1.38583C6.79677 1.83694 6.93149 2.3873 6.93149 3.03691V4.78543H5.69135V2.96112C5.69135 2.58219 5.61384 2.25919 5.45882 1.99213C5.3075 1.72507 5.10265 1.52116 4.84429 1.38041C4.58962 1.23967 4.30727 1.16929 3.99723 1.16929C3.6872 1.16929 3.40484 1.23967 3.15017 1.38041C2.8955 1.52116 2.6925 1.72507 2.54118 1.99213C2.38985 2.25919 2.31419 2.58219 2.31419 2.96112V4.78543H1.06851Z" fill="#E7E7E7"/>
</svg>
