<svg width="36" height="36" viewBox="0 0 36 36" fill="none" xmlns="http://www.w3.org/2000/svg">
<rect width="36.0009" height="36" rx="18" fill="#63788B"/>
<path d="M26.0009 17.654C26.0009 21.8806 22.4183 25.3072 18.0004 25.3072C17.4793 25.3078 16.9633 25.2603 16.4524 25.1648C16.0851 25.0952 15.9019 25.0608 15.7739 25.0808C15.6459 25.1 15.4635 25.1968 15.1003 25.3896C14.0653 25.9408 12.8744 26.1261 11.7209 25.9153C12.1615 25.3706 12.4603 24.7252 12.5905 24.0368C12.6705 23.6127 12.4721 23.2007 12.1745 22.8991C10.8272 21.5294 10 19.6845 10 17.654C10 13.4274 13.5826 10 18.0004 10C22.4183 10 26.0009 13.4274 26.0009 17.654Z" stroke="white" stroke-width="1.6" stroke-linecap="round" stroke-linejoin="round"/>
<path d="M16.4004 16.2771C16.4004 15.4611 17.1164 14.8002 18.0005 14.8002C18.8845 14.8002 19.6006 15.4619 19.6006 16.2771C19.6006 16.5715 19.5078 16.8451 19.347 17.0756C18.8685 17.7604 18.0005 18.4156 18.0005 19.2317V19.6005M18.0005 21.6006H18.0077" stroke="white" stroke-width="1.6" stroke-linecap="round" stroke-linejoin="round"/>
</svg>
