<svg width="36" height="36" viewBox="0 0 36 36" fill="none" xmlns="http://www.w3.org/2000/svg">
<rect width="36" height="36" rx="18" fill="#008AFF"/>
<path d="M15.1316 25.2C15.76 25.6976 16.5905 26 17.5 26C18.4095 26 19.24 25.6976 19.8684 25.2M10.0237 19.9152C9.85553 20.9976 10.6063 21.7488 11.5253 22.1232C15.0487 23.5592 19.9513 23.5592 23.4747 22.1232C24.3937 21.7488 25.1445 20.9976 24.9763 19.9152C24.8737 19.2496 24.3629 18.696 23.9847 18.1552C23.4897 17.4376 23.4408 16.656 23.44 15.8232C23.4408 12.608 20.7818 10 17.5 10C14.2182 10 11.5592 12.608 11.5592 15.824C11.5592 16.656 11.5103 17.4384 11.0145 18.1552C10.6371 18.696 10.1271 19.2496 10.0237 19.9152Z" stroke="#E7E7E7" stroke-width="1.6" stroke-linecap="round" stroke-linejoin="round"/>
</svg>
