<svg width="36" height="36" viewBox="0 0 36 36" fill="none" xmlns="http://www.w3.org/2000/svg">
<rect width="36" height="36" rx="18" fill="#1FD13D"/>
<path d="M22.0001 17.0441C22.0001 16.7673 22.0001 16.6289 22.0417 16.5057C22.1625 16.1473 22.4817 16.0089 22.8017 15.8633C23.1601 15.6993 23.3393 15.6177 23.5176 15.6033C23.7192 15.5873 23.9216 15.6305 24.0944 15.7273C24.3232 15.8553 24.4832 16.1001 24.6464 16.2985C25.4008 17.2153 25.7784 17.6736 25.916 18.1784C26.028 18.5864 26.028 19.0136 25.916 19.4208C25.7152 20.1584 25.0792 20.776 24.608 21.3488C24.3672 21.6408 24.2464 21.7872 24.0944 21.8728C23.9187 21.9702 23.7179 22.0134 23.5176 21.9968C23.3393 21.9824 23.1601 21.9008 22.8009 21.7368C22.4809 21.5912 22.1625 21.4528 22.0417 21.0944C22.0001 20.9712 22.0001 20.8328 22.0001 20.556V17.0441ZM14.0002 17.0441C14.0002 16.6953 13.9906 16.3825 13.709 16.1377C13.6066 16.0489 13.4706 15.9873 13.1995 15.8633C12.8403 15.7001 12.6611 15.6177 12.4827 15.6033C11.9491 15.5601 11.6619 15.9249 11.3547 16.2993C10.5995 17.2153 10.2219 17.6736 10.0835 18.1792C9.97216 18.5859 9.97216 19.015 10.0835 19.4216C10.2851 20.1584 10.9219 20.7768 11.3923 21.3488C11.6891 21.7088 11.9731 22.0376 12.4827 21.9968C12.6611 21.9824 12.8403 21.9008 13.1995 21.7368C13.4714 21.6136 13.6066 21.5512 13.709 21.4624C13.9906 21.2176 14.0002 20.9048 14.0002 20.5568V17.0441Z" stroke="white" stroke-width="1.6" stroke-linecap="round" stroke-linejoin="round"/>
<path d="M12.4001 15.6001C12.4001 12.9489 14.9073 10.8002 18 10.8002C21.0928 10.8002 23.5999 12.9489 23.5999 15.6001M23.5999 21.9999V22.6399C23.5999 24.0535 22.168 25.1999 20.4 25.1999H18.8" stroke="white" stroke-width="1.6" stroke-linecap="round" stroke-linejoin="round"/>
</svg>
